<svg width="200" height="39" viewBox="0 0 200 39" fill="none" xmlns="http://www.w3.org/2000/svg">
<path d="M39.2004 34.5342V28.9342L29.6338 19.3676H24.0338L39.2004 34.5342Z" fill="white"/>
<path d="M4.66723 38.7314H10.2L19.6005 29.4001L28.9338 38.7314H34.594L19.6005 23.8001L4.66723 38.7314Z" fill="white"/>
<path d="M0 4.19724L0 9.79722L9.56665 19.3639H15.1666L0 4.19724Z" fill="white"/>
<path d="M34.5339 2.95639e-05H29.0012L19.6006 9.33135L10.2673 2.95639e-05H4.60718L19.6006 14.9313L34.5339 2.95639e-05Z" fill="white"/>
<path d="M19.6437 21.9289C21.0859 21.9289 22.255 20.7598 22.255 19.3176C22.255 17.8754 21.0859 16.7063 19.6437 16.7063C18.2016 16.7063 17.0325 17.8754 17.0325 19.3176C17.0325 20.7598 18.2016 21.9289 19.6437 21.9289Z" fill="#E6007A"/>
<path d="M196.454 27.0719C197.307 27.0307 198.128 27.4023 198.662 28.0711C199.195 28.7585 199.383 29.6541 199.171 30.4988C198.961 31.4628 198.42 32.3222 197.642 32.9266C196.909 33.5333 195.988 33.8663 195.037 33.8689C194.203 33.9167 193.396 33.5675 192.858 32.9266C192.335 32.2329 192.177 31.3296 192.433 30.4988C192.621 29.5472 193.131 28.6897 193.876 28.0711C194.583 27.4306 195.501 27.0748 196.454 27.0719Z" fill="#E6007A"/>
<path d="M62.9468 26.1732H61.4451C60.8055 26.1732 60.3467 25.9786 60.0686 25.5892C59.7905 25.1999 59.721 24.7411 59.8601 24.2127C59.9435 23.74 60.1938 23.309 60.6109 22.9197C61.0558 22.5025 61.5981 22.294 62.2377 22.294H63.7393L65.2827 15.2029C65.4217 14.5633 65.7276 14.0766 66.2003 13.7429C66.7009 13.4092 67.2153 13.2424 67.7437 13.2424C68.2164 13.2424 68.6197 13.3953 68.9534 13.7012C69.3149 14.0071 69.4261 14.5077 69.2871 15.2029L67.7437 22.294H69.2453C69.9962 22.294 70.6775 22.141 71.2892 21.8351C71.9288 21.5292 72.485 21.1399 72.9577 20.6672C73.4583 20.1944 73.8615 19.6522 74.1674 19.0404C74.5011 18.4286 74.7375 17.8029 74.8765 17.1633C74.9877 16.5516 75.0156 15.9537 74.9599 15.3697C74.9321 14.7857 74.7931 14.2574 74.5428 13.7846C74.2925 13.3119 73.931 12.9365 73.4583 12.6584C72.9855 12.3525 72.3877 12.1996 71.6647 12.1996H63.6976C63.1692 12.1996 62.6131 12.2552 62.0291 12.3664C61.4729 12.4776 60.9307 12.6723 60.4023 12.9504C59.9018 13.2285 59.4568 13.59 59.0675 14.0349C58.706 14.452 58.4557 14.9804 58.3167 15.62C58.1777 16.2596 58.2472 16.8435 58.5253 17.3719C58.8033 17.9003 59.0953 18.373 59.4012 18.7901C59.8183 19.2629 59.9574 19.7773 59.8183 20.3335C59.7071 20.834 59.429 21.279 58.9841 21.6683C58.567 22.0576 58.0803 22.2523 57.5242 22.2523C57.0514 22.2523 56.6204 22.0993 56.2311 21.7934C55.4524 21.0704 54.8824 20.1805 54.5209 19.1238C54.1594 18.0671 54.1037 16.8992 54.354 15.62C54.6043 14.452 55.0631 13.4231 55.7305 12.5333C56.3979 11.6156 57.1905 10.8509 58.1081 10.2391C59.0536 9.59949 60.0825 9.12675 61.1948 8.82086C62.3072 8.48716 63.4195 8.32031 64.5318 8.32031H72.2486C73.6947 8.32031 74.8904 8.58449 75.8359 9.11285C76.8092 9.64121 77.5461 10.3364 78.0467 11.1985C78.575 12.0327 78.8809 12.9782 78.9643 14.0349C79.0756 15.0916 79.0199 16.1622 78.7975 17.2468C78.5472 18.3591 78.1301 19.4575 77.5461 20.542C76.9621 21.5988 76.2252 22.5442 75.3353 23.3785C74.4733 24.2127 73.4583 24.894 72.2903 25.4224C71.1224 25.9229 69.8432 26.1732 68.4528 26.1732H66.9512L66.534 28.1337C66.3672 28.8289 66.1308 29.4824 65.8249 30.0942C65.5468 30.706 65.1714 31.2482 64.6987 31.721C64.2538 32.1659 63.6976 32.5274 63.0302 32.8055C62.3906 33.0558 61.6259 33.1809 60.736 33.1809C60.1798 33.1809 59.5403 33.0836 58.8172 32.8889C58.122 32.6943 57.5798 32.2215 57.1905 31.4707C56.9402 31.0536 56.8568 30.6364 56.9402 30.2193C57.0792 29.6632 57.3851 29.2043 57.8579 28.8428C58.3306 28.4813 58.8451 28.3005 59.4012 28.3005C59.9296 28.3005 60.3745 28.4952 60.736 28.8845C60.9307 29.1626 61.1948 29.3016 61.5285 29.3016C61.8066 29.3016 62.0291 29.1487 62.1959 28.8428C62.3628 28.5091 62.5575 27.8417 62.7799 26.8406L62.9468 26.1732Z" fill="white"/>
<path d="M77.973 24.9636C78.2233 23.8234 78.6682 22.7528 79.3078 21.7517C79.9474 20.7506 80.7121 19.8746 81.602 19.1238C82.5197 18.373 83.5208 17.7751 84.6053 17.3302C85.7176 16.8853 86.8438 16.6628 87.984 16.6628C89.1519 16.6628 90.1947 16.8853 91.1124 17.3302C92.0301 17.7751 92.7809 18.373 93.3649 19.1238C93.9488 19.8746 94.3521 20.7506 94.5745 21.7517C94.797 22.7528 94.7831 23.8234 94.5328 24.9636C94.2825 26.1037 93.8376 27.1743 93.198 28.1754C92.5584 29.1487 91.7798 30.0108 90.8621 30.7616C89.9723 31.5124 88.9712 32.1103 87.8588 32.5552C86.7743 32.9723 85.6481 33.1809 84.4801 33.1809C83.34 33.1809 82.3111 32.9723 81.3934 32.5552C80.4757 32.1103 79.7249 31.5124 79.1409 30.7616C78.557 30.0108 78.1538 29.1487 77.9313 28.1754C77.7088 27.1743 77.7227 26.1037 77.973 24.9636ZM90.6536 24.9636C90.7926 24.3518 90.8065 23.7678 90.6953 23.2116C90.584 22.6555 90.3616 22.1688 90.0279 21.7517C89.722 21.3346 89.3188 21.0148 88.8182 20.7923C88.3455 20.542 87.8032 20.4169 87.1914 20.4169C86.5797 20.4169 85.9818 20.542 85.3978 20.7923C84.8138 21.0148 84.2716 21.3346 83.771 21.7517C83.2983 22.1688 82.8812 22.6555 82.5197 23.2116C82.186 23.7678 81.9496 24.3518 81.8105 24.9636C81.5325 26.2149 81.7271 27.2716 82.3945 28.1337C83.0619 28.9958 84.0213 29.4268 85.2727 29.4268C85.8845 29.4268 86.4823 29.3155 87.0663 29.0931C87.6503 28.8428 88.1786 28.523 88.6514 28.1337C89.1519 27.7166 89.569 27.2438 89.9027 26.7155C90.2643 26.1593 90.5145 25.5753 90.6536 24.9636Z" fill="white"/>
<path d="M105.129 9.15456C105.046 9.15456 104.976 9.23799 104.921 9.40484C104.893 9.57169 104.851 9.76634 104.795 9.98881L100.958 28.092C100.902 28.3145 100.847 28.5508 100.791 28.8011C100.735 29.0236 100.68 29.2043 100.624 29.3434C100.902 29.0653 101.166 28.8845 101.417 28.8011C101.695 28.6899 101.959 28.6342 102.209 28.6342C102.682 28.6342 103.071 28.8011 103.377 29.1348C103.683 29.4407 103.766 29.8578 103.627 30.3862C103.544 30.8311 103.335 31.2343 103.002 31.5958C102.446 32.2354 101.862 32.6664 101.25 32.8889C100.666 33.0836 100.096 33.1809 99.5396 33.1809C98.3995 33.1809 97.593 32.8472 97.1203 32.1798C96.6475 31.4846 96.5641 30.3584 96.87 28.8011L100.874 10.1139C101.069 9.11285 101.319 8.30641 101.625 7.69463C101.931 7.08285 102.279 6.61011 102.668 6.27641C103.085 5.9149 103.558 5.67853 104.086 5.5673C104.642 5.42826 105.268 5.35873 105.963 5.35873H106.297C106.798 5.35873 107.173 5.55339 107.423 5.94271C107.701 6.33202 107.785 6.76305 107.674 7.23579C107.59 7.68072 107.326 8.11175 106.881 8.52887C106.436 8.946 105.963 9.15456 105.463 9.15456H105.129Z" fill="white"/>
<path d="M112.88 29.5936C112.63 29.1209 112.393 28.5647 112.171 27.9251C111.949 27.2855 111.907 26.6321 112.046 25.9647C112.185 25.4085 112.491 24.9497 112.964 24.5881C113.464 24.1988 114.062 23.8095 114.757 23.4202C115.341 23.0865 115.814 22.6972 116.175 22.2523C116.565 21.8073 116.801 21.4041 116.884 21.0426C116.968 20.6255 116.648 20.4169 115.925 20.4169C115.369 20.4169 114.813 20.5281 114.257 20.7506C113.7 20.9731 113.172 21.3207 112.672 21.7934C112.199 22.2662 111.754 22.864 111.337 23.587C110.947 24.2823 110.655 25.1165 110.461 26.0898L109.376 31.3038C109.237 31.9434 108.917 32.4162 108.417 32.7221C107.944 33.028 107.457 33.1809 106.957 33.1809C106.484 33.1809 106.081 33.028 105.747 32.7221C105.441 32.4162 105.358 31.9434 105.497 31.3038L109.96 10.2808C110.155 9.2797 110.405 8.47326 110.711 7.86148C111.017 7.22189 111.365 6.73524 111.754 6.40154C112.171 6.04004 112.644 5.80367 113.172 5.69243C113.7 5.55339 114.312 5.48387 115.007 5.48387H115.383C115.911 5.48387 116.287 5.67853 116.509 6.06785C116.759 6.45716 116.843 6.88819 116.759 7.36093C116.648 7.80586 116.384 8.23689 115.967 8.65401C115.577 9.04333 115.119 9.23799 114.59 9.23799H114.215C114.131 9.23799 114.062 9.32141 114.006 9.48826C113.979 9.65511 113.937 9.86367 113.881 10.1139L111.962 18.9987C112.797 18.2757 113.673 17.7056 114.59 17.2885C115.508 16.8714 116.356 16.6628 117.135 16.6628C118.386 16.6628 119.387 17.0382 120.138 17.789C120.889 18.5398 121.125 19.527 120.847 20.7506C120.597 21.9186 119.999 23.0031 119.054 24.0042C118.136 25.0053 117.079 25.7422 115.883 26.2149C115.967 26.354 116.092 26.6042 116.259 26.9658C116.426 27.2995 116.592 27.6471 116.759 28.0086C116.954 28.3701 117.149 28.6899 117.343 28.9679C117.538 29.2182 117.719 29.3434 117.886 29.3434C118.108 29.1765 118.358 29.0236 118.636 28.8845C118.914 28.7177 119.206 28.6342 119.512 28.6342C119.985 28.6342 120.361 28.8011 120.639 29.1348C120.944 29.4407 121.028 29.8578 120.889 30.3862C120.805 30.8311 120.597 31.2343 120.263 31.5958C119.929 31.9295 119.568 32.2215 119.179 32.4718C118.789 32.6943 118.4 32.8611 118.011 32.9723C117.621 33.1114 117.302 33.1809 117.051 33.1809C116.467 33.1809 115.967 33.0836 115.55 32.8889C115.133 32.6664 114.757 32.3884 114.423 32.0547C114.118 31.721 113.839 31.3456 113.589 30.9284C113.339 30.4835 113.103 30.0386 112.88 29.5936Z" fill="white"/>
<path d="M136.664 28.0503C136.608 28.3005 136.538 28.5647 136.455 28.8428C136.399 29.0931 136.344 29.2738 136.288 29.3851L136.497 29.2182C136.97 28.8567 137.456 28.676 137.957 28.676C138.429 28.676 138.805 28.8428 139.083 29.1765C139.361 29.4824 139.444 29.8856 139.333 30.3862C139.222 30.8311 138.986 31.2621 138.624 31.6793C138.068 32.2076 137.498 32.5969 136.914 32.8472C136.358 33.0697 135.815 33.1809 135.287 33.1809C133.702 33.1809 132.784 32.4718 132.534 31.0536C131.811 31.6932 131.019 32.2076 130.156 32.5969C129.294 32.9862 128.377 33.1809 127.403 33.1809C126.347 33.1809 125.471 33.0001 124.776 32.6386C124.108 32.2493 123.594 31.7349 123.232 31.0953C122.871 30.4557 122.662 29.7188 122.607 28.8845C122.551 28.0503 122.634 27.1604 122.857 26.2149C123.079 25.1026 123.483 23.9764 124.066 22.8362C124.65 21.6961 125.373 20.6672 126.236 19.7495C127.098 18.8318 128.071 18.0949 129.155 17.5388C130.268 16.9548 131.45 16.6628 132.701 16.6628C133.758 16.6628 134.634 16.9687 135.329 17.5805C135.579 17.2746 135.871 17.0521 136.205 16.9131C136.538 16.7462 136.872 16.6628 137.206 16.6628C137.679 16.6628 138.068 16.8296 138.374 17.1633C138.708 17.4692 138.805 17.942 138.666 18.5816L136.664 28.0503ZM131.908 20.4169C131.241 20.4169 130.615 20.6116 130.031 21.0009C129.475 21.3624 128.961 21.8351 128.488 22.4191C128.043 22.9753 127.668 23.587 127.362 24.2544C127.056 24.9218 126.847 25.5614 126.736 26.1732C126.653 26.5903 126.611 26.9936 126.611 27.3829C126.611 27.7722 126.68 28.1198 126.82 28.4257C126.959 28.7316 127.167 28.9819 127.445 29.1765C127.723 29.3434 128.085 29.4268 128.53 29.4268C129.141 29.4268 129.725 29.2738 130.282 28.9679C130.866 28.6621 131.38 28.2588 131.825 27.7583C132.27 27.2577 132.645 26.6877 132.951 26.0481C133.285 25.4085 133.521 24.755 133.66 24.0876C133.883 23.1143 133.855 22.2662 133.577 21.5431C133.327 20.7923 132.77 20.4169 131.908 20.4169Z" fill="white"/>
<path d="M155.575 28.092C155.52 28.3145 155.464 28.5508 155.408 28.8011C155.353 29.0236 155.297 29.2043 155.242 29.3434C155.548 29.0931 155.826 28.9262 156.076 28.8428C156.354 28.7316 156.618 28.676 156.868 28.676C157.341 28.676 157.717 28.8428 157.995 29.1765C158.273 29.4824 158.356 29.8856 158.245 30.3862C158.161 30.7477 157.939 31.1787 157.577 31.6793C157.021 32.2632 156.437 32.6664 155.826 32.8889C155.242 33.0836 154.699 33.1809 154.199 33.1809C153.309 33.1809 152.614 32.9723 152.113 32.5552C151.64 32.1381 151.376 31.5124 151.321 30.6782C150.57 31.429 149.736 32.0408 148.818 32.5135C147.9 32.9584 146.913 33.1809 145.856 33.1809C144.8 33.1809 143.924 33.0001 143.228 32.6386C142.533 32.2493 142.005 31.7349 141.643 31.0953C141.31 30.4557 141.115 29.7188 141.059 28.8845C141.004 28.0503 141.087 27.1604 141.31 26.2149C141.532 25.1026 141.935 23.9764 142.519 22.8362C143.131 21.6961 143.854 20.6672 144.688 19.7495C145.55 18.8318 146.524 18.0949 147.608 17.5388C148.721 16.9548 149.889 16.6628 151.112 16.6628C152.336 16.6628 153.239 17.1355 153.823 18.081L156.243 6.73524C156.382 6.12346 156.674 5.66462 157.119 5.35873C157.591 5.02503 158.078 4.85818 158.579 4.85818C159.079 4.85818 159.496 5.02503 159.83 5.35873C160.164 5.66462 160.261 6.12346 160.122 6.73524L155.575 28.092ZM150.32 20.4169C149.652 20.4169 149.026 20.6116 148.442 21.0009C147.886 21.3624 147.372 21.8351 146.899 22.4191C146.454 22.9753 146.079 23.587 145.773 24.2544C145.467 24.9218 145.258 25.5614 145.147 26.1732C145.064 26.5903 145.022 26.9936 145.022 27.3829C145.022 27.7722 145.092 28.1198 145.231 28.4257C145.37 28.7316 145.578 28.9819 145.856 29.1765C146.134 29.3434 146.51 29.4268 146.983 29.4268C147.622 29.4268 148.22 29.2738 148.776 28.9679C149.332 28.6342 149.833 28.2171 150.278 27.7166C150.723 27.1882 151.098 26.6181 151.404 26.0064C151.71 25.3668 151.932 24.7272 152.071 24.0876C152.294 23.1143 152.266 22.2662 151.988 21.5431C151.738 20.7923 151.182 20.4169 150.32 20.4169Z" fill="white"/>
<path d="M166.185 33.1809C165.017 33.1809 164.002 32.9723 163.14 32.5552C162.278 32.1103 161.583 31.5124 161.055 30.7616C160.526 30.0108 160.179 29.1348 160.012 28.1337C159.845 27.1326 159.887 26.0759 160.137 24.9636C160.387 23.7956 160.804 22.7111 161.388 21.71C161.972 20.6811 162.681 19.8051 163.516 19.0821C164.35 18.3313 165.295 17.7473 166.352 17.3302C167.437 16.8853 168.591 16.6628 169.814 16.6628C170.982 16.6628 171.955 16.8296 172.734 17.1633C173.513 17.4692 174.125 17.8864 174.569 18.4147C175.042 18.9153 175.334 19.4992 175.445 20.1666C175.584 20.8062 175.584 21.4597 175.445 22.1271C175.306 22.7667 175.042 23.4063 174.653 24.0459C174.264 24.6577 173.777 25.2138 173.193 25.7144C172.609 26.1871 171.914 26.5764 171.107 26.8823C170.329 27.1604 169.481 27.2995 168.563 27.2995C168.229 27.2995 167.868 27.2855 167.478 27.2577C167.117 27.2021 166.783 27.1187 166.477 27.0075C166.171 26.8684 165.935 26.6738 165.768 26.4235C165.601 26.1454 165.56 25.77 165.643 25.2973C165.754 24.8245 166.018 24.3935 166.436 24.0042C166.853 23.587 167.339 23.3785 167.895 23.3785C168.201 23.3785 168.466 23.4341 168.688 23.5453C168.938 23.6566 169.244 23.7122 169.606 23.7122C170.162 23.7122 170.621 23.5453 170.982 23.2116C171.344 22.8501 171.552 22.5164 171.608 22.2105C171.691 21.7656 171.552 21.3624 171.191 21.0009C170.829 20.6116 170.12 20.4169 169.063 20.4169C167.784 20.4169 166.686 20.8618 165.768 21.7517C164.85 22.6416 164.253 23.7122 163.974 24.9636C163.696 26.2149 163.808 27.2716 164.308 28.1337C164.837 28.9958 165.699 29.4268 166.894 29.4268C167.617 29.4268 168.243 29.3295 168.771 29.1348C169.328 28.9401 169.925 28.5925 170.565 28.092C171.038 27.7027 171.524 27.508 172.025 27.508C172.498 27.508 172.887 27.6888 173.193 28.0503C173.499 28.384 173.596 28.815 173.485 29.3434C173.429 29.5658 173.332 29.8022 173.193 30.0525C173.054 30.2749 172.873 30.4974 172.651 30.7199C171.733 31.6097 170.704 32.2493 169.564 32.6386C168.424 33.0001 167.298 33.1809 166.185 33.1809Z" fill="white"/>
<path d="M185.998 24.6716L189.085 30.1359C189.224 30.3306 189.294 30.5252 189.294 30.7199C189.321 30.8867 189.307 31.0675 189.252 31.2621C189.141 31.7627 188.849 32.2076 188.376 32.5969C187.903 32.9862 187.417 33.1809 186.916 33.1809C186.666 33.1809 186.429 33.1114 186.207 32.9723C185.984 32.8611 185.804 32.6943 185.665 32.4718L182.953 27.8L178.365 32.4718C178.115 32.7499 177.837 32.9306 177.531 33.014C177.253 33.1253 177.002 33.1809 176.78 33.1809C176.307 33.1809 175.918 32.9862 175.612 32.5969C175.306 32.2076 175.209 31.7627 175.32 31.2621C175.376 31.0675 175.431 30.8867 175.487 30.7199C175.57 30.553 175.723 30.3584 175.946 30.1359L181.285 24.7133L178.49 19.7912C178.351 19.4297 178.323 19.0543 178.407 18.665C178.518 18.1366 178.81 17.6917 179.283 17.3302C179.755 16.9409 180.242 16.7462 180.743 16.7462C180.965 16.7462 181.187 16.8157 181.41 16.9548C181.66 17.066 181.855 17.2329 181.994 17.4553L184.33 21.5849L188.418 17.4553C188.64 17.2329 188.89 17.066 189.168 16.9548C189.474 16.8157 189.739 16.7462 189.961 16.7462C190.462 16.7462 190.865 16.9548 191.171 17.3719C191.504 17.7612 191.616 18.2062 191.504 18.7067C191.421 19.0682 191.198 19.4297 190.837 19.7912L185.998 24.6716Z" fill="white"/>
</svg>
